<?xml version="1.0" encoding="UTF-8" standalone="no"?>
<svg width="512px" height="512px" viewBox="0 0 122 85" version="1.1" xmlns="http://www.w3.org/2000/svg" xmlns:xlink="http://www.w3.org/1999/xlink">
    <title>Data Mover</title>
    <desc>Copyright Teradata, Inc.</desc>
    <defs>
      <polygon id="path-1" points="53.639 81.0003 53.639 0.8953 0.878 0.8953 0.878 81.0003 53.639 81.0003"/>
      <polygon id="path-3" points="-25.5604 83 22.5026 83 22.5026 2.8953 -25.5604 2.8953 -25.5604 83"/>
    </defs>

        <g id="Group-6" transform="translate(68.000000, 0.104700)">
            <mask id="mask-2" fill="white">
              <use xlink:href="#path-1"/>
            </mask>
          <g id="Clip-2"/>
          <polygon mask="url(#mask-2)"
                   points="11.903 0.8953 0.878 12.8883 30.656 40.2633 3.313 70.0073 15.271 81.0003 53.64 39.2633"/>
            <mask id="mask-4" fill="white">
              <use xlink:href="#path-3"/>
            </mask>
          <g id="Clip-5"/>
          <polygon mask="url(#mask-4)"
                   points="-19.2334 2.8953 -25.5604 9.7773 9.7426 42.2313 -22.2994 77.0853 -15.8654 83.0003 22.5026 41.2633"/>
        </g>
  <path
    d="M29,44.0995 L45.703,25.9305 L63.871,42.6335 L47.169,60.8025 L29,44.0995 Z M33.405,8.9305 L0,45.2685 L36.338,78.6735 L69.743,42.3355 L33.405,8.9305 "/>

</svg>
