<?xml version="1.0" encoding="UTF-8" standalone="no"?>
<svg width="512px" height="512px" viewBox="0 0 113 113" version="1.1" xmlns="http://www.w3.org/2000/svg">
    <title>Data Lab</title>
    <desc>Copyright Teradata, Inc.</desc>
  <defs/>

  <path
    d="M18.4732,51.1056 L18.4732,45.3536 L9.2362,50.6886 L0.0002,56.0206 L9.2362,61.3516 L18.4732,66.6866 L18.4732,60.9346 L28.0482,62.3786 C28.9982,66.5606 30.8582,70.3976 33.4132,73.6666 L33.4132,67.4486 C31.6732,64.0146 30.6862,60.1346 30.6862,56.0206 C30.6862,51.9056 31.6732,48.0256 33.4132,44.5916 L33.4132,38.3746 C30.8582,41.6436 28.9982,45.4796 28.0482,49.6616 L18.4732,51.1056 Z"/>
  <path
    d="M73.666,78.6265 L67.449,78.6265 C64.015,80.3665 60.134,81.3525 56.02,81.3525 C51.906,81.3525 48.025,80.3665 44.59,78.6265 L38.374,78.6265 C41.644,81.1815 45.48,83.0425 49.662,83.9915 L51.105,93.5665 L45.354,93.5665 L50.688,102.8035 L56.02,112.0395 L61.352,102.8035 L66.685,93.5665 L60.935,93.5665 L62.377,83.9915 C66.56,83.0425 70.396,81.1815 73.666,78.6265"/>
  <path
    d="M102.8029,50.6882 L93.5659,45.3542 L93.5659,51.1052 L83.9909,49.6622 C83.0419,45.4792 81.1819,41.6432 78.6259,38.3742 L78.6259,44.5912 C80.3659,48.0272 81.3519,51.9072 81.3519,56.0202 C81.3519,60.1332 80.3659,64.0132 78.6259,67.4492 L78.6259,73.6662 C81.1819,70.3972 83.0419,66.5612 83.9909,62.3782 L93.5659,60.9342 L93.5659,66.6862 L102.8029,61.3522 L112.0399,56.0202 L102.8029,50.6882 Z"/>
  <path
    d="M60.935,18.4736 L66.685,18.4736 L61.352,9.2366 L56.02,0.0006 L50.688,9.2366 L45.354,18.4736 L51.105,18.4736 L49.662,28.0486 C45.48,28.9976 41.643,30.8586 38.374,33.4136 L44.59,33.4136 C48.025,31.6736 51.906,30.6876 56.02,30.6876 C60.134,30.6876 64.014,31.6736 67.449,33.4136 L73.666,33.4136 C70.396,30.8586 66.56,28.9976 62.377,28.0486 L60.935,18.4736 Z"/>
  <path
    d="M56.0199,64.9611 C51.0819,64.9611 47.0789,60.9591 47.0789,56.0201 C47.0789,51.0811 51.0819,47.0791 56.0199,47.0791 C60.9579,47.0791 64.9599,51.0811 64.9599,56.0201 C64.9599,60.9591 60.9579,64.9611 56.0199,64.9611 M56.0199,35.6821 C44.7869,35.6821 35.6819,44.7881 35.6819,56.0201 C35.6819,67.2521 44.7869,76.3581 56.0199,76.3581 C67.2529,76.3581 76.3579,67.2521 76.3579,56.0201 C76.3579,44.7881 67.2529,35.6821 56.0199,35.6821"/>
  <path
    d="M30.0145,33.8704 L34.1775,38.0334 C35.4065,36.6134 36.7735,35.3074 38.2485,34.1344 L33.9995,29.8854 L36.5725,27.3124 L30.2365,25.3234 L23.9765,23.4114 L25.9275,29.7094 L27.8775,36.0074 L30.0145,33.8704"/>
  <path
    d="M82.4903,25.7614 L76.2523,27.6514 L78.4933,29.8924 L74.0803,34.3044 C75.3483,35.3874 76.5163,36.5854 77.5813,37.8744 L82.0283,33.4274 L84.9473,36.3464 L86.8563,30.0904 L88.7283,23.8714 L82.4903,25.7614"/>
  <path
    d="M38.0859,78.1088 C36.6529,76.8928 35.3429,75.5328 34.1679,74.0568 L30.0149,78.2108 L27.8779,76.0738 L25.9269,82.3718 L23.9769,88.6698 L30.2359,86.7578 L36.5729,84.7688 L33.9989,82.1958 L38.0859,78.1088"/>
  <path
    d="M86.8562,81.9905 L84.9472,75.7345 L82.0282,78.6535 L77.8122,74.4365 C76.7142,75.6905 75.5122,76.8565 74.2202,77.9165 L78.4932,82.1885 L76.2522,84.4295 L82.4902,86.3195 L88.7282,88.2095 L86.8562,81.9905"/>
</svg>
