<?xml version="1.0" encoding="UTF-8" standalone="no"?>
<svg width="512px" height="512px" viewBox="0 0 110 111" version="1.1" xmlns="http://www.w3.org/2000/svg">
    <title>EcoSystem</title>
    <desc>Copyright Teradata, Inc.</desc>
  <defs/>
  <path
    d="M55.2105,96.6332 C32.8195,96.6332 14.6695,78.1202 14.6695,55.2862 C14.6695,32.4502 32.8195,13.9392 55.2105,13.9392 C77.6015,13.9392 95.7535,32.4502 95.7535,55.2862 C95.7535,78.1202 77.6015,96.6332 55.2105,96.6332 L55.2105,96.6332 Z M109.4215,69.5402 L109.4215,41.0312 L98.5915,41.0312 C97.8315,38.6232 96.8845,36.3012 95.7665,34.0832 L103.4265,26.2712 L83.6605,6.1122 L76.0015,13.9242 C73.8255,12.7852 71.5485,11.8192 69.1885,11.0432 L69.1885,0.0002 L41.2345,0.0002 L41.2345,11.0432 C38.8735,11.8192 36.5965,12.7852 34.4205,13.9242 L26.7615,6.1122 L6.9945,26.2712 L14.6545,34.0832 C13.5375,36.3012 12.5915,38.6232 11.8315,41.0312 L0.9995,41.0312 L0.9995,69.5402 L11.8315,69.5402 C12.5915,71.9482 13.5375,74.2692 14.6545,76.4882 L6.9945,84.2992 L26.7615,104.4582 L34.4205,96.6462 C36.5965,97.7852 38.8735,98.7522 41.2345,99.5272 L41.2345,110.5722 L69.1885,110.5722 L69.1885,99.5272 C71.5485,98.7522 73.8255,97.7852 76.0015,96.6462 L83.6605,104.4582 L103.4275,84.2992 L95.7665,76.4882 C96.8845,74.2692 97.8315,71.9482 98.5915,69.5402 L109.4215,69.5402 Z"/>
  <polygon points="14.669 42.3961 14.669 68.1761 37.029 55.2851"/>
  <polygon points="96.3583 42.3959 96.3583 68.1759 73.9983 55.2849"/>
  <polygon points="42.1245 97.1306 67.9045 97.1306 55.0135 74.7706"/>
  <polygon points="42.1243 13.4413 67.9043 13.4413 55.0133 35.8013"/>
</svg>
