<?xml version="1.0" encoding="UTF-8" standalone="no"?>
<svg width="512px" height="512px" viewBox="0 0 105 120" version="1.1" xmlns="http://www.w3.org/2000/svg">
    <!-- Generator: Sketch 39.1 (31720) - http://www.bohemiancoding.com/sketch -->
      <title>Viewpoint</title>
    <desc>Copyright Teradata, Inc.</desc>
  <defs/>

  <polygon id="Fill-2" fill="#000000"
           points="66.5586 45.9814 88.8006 68.2244 52.4686 104.5564 16.1496 68.2364 38.4046 45.9814 23.3636 45.9814 0.9996 68.3454 52.6456 119.9914 104.1966 68.4404 81.7376 45.9814"/>
  <path
    d="M16.7013,41.6956 L41.7623,41.6956 L41.7623,48.7576 L22.3753,68.1446 L47.6483,93.4166 L52.7593,98.6246 L61.7943,89.1766 L82.8613,68.1096 L63.4743,48.7236 L63.4743,41.6956 L88.7063,41.6956 L52.7043,0.0006 L16.7013,41.6956 Z M63.7903,56.7146 L75.0573,67.9046 L63.7463,79.2286 L63.7903,56.7146 Z M30.7913,67.9046 L42.0573,56.7146 L42.1023,79.2286 L30.7913,67.9046 Z"
    id="Fill-7" fill="#000000"/>

</svg>
